<svg height="512" viewBox="0 0 512 512" width="512" xmlns="http://www.w3.org/2000/svg"><path d="m256.48 144.5v-32a16 16 0 0 0 0 32z"/><path d="m291.553 274.424-19.553 7.896v44.6l30.414-25.345z"/><path d="m369.586 301.575 30.414 25.345v-44.6l-19.553-7.896z"/><path d="m304.581 263.913 18.962 48.087h24.914l18.9-47.935c-2.264.275-60.177.22-62.776-.152z"/><path d="m140.751 241.19 66.547-66.546-50.911-16.971-32.607 32.606z"/><path d="m445.646 290-29.646-4.238v58.238a8 8 0 0 1 -13.121 6.146l-39.345-32.788-19.534 52.091v110.551h80v-16h-56a8 8 0 0 1 -8-8v-72a8 8 0 0 1 8-8h56v-16h16v32h40v-62.4a40.293 40.293 0 0 0 -34.354-39.6z"/><path d="m94.627 128.519h40v40h-40z" transform="matrix(.707 -.707 .707 .707 -71.446 124.557)"/><path d="m88 432a16.019 16.019 0 0 0 -16 16h32a16.019 16.019 0 0 0 -16-16z"/><path d="m54.765 330.9a23.869 23.869 0 0 1 -12.89 5.02l32.341 83.206a31.791 31.791 0 0 1 13.638-3.126z"/><path d="m298.716 245.994c.031.012.062.024.095.035a38.758 38.758 0 0 0 13.669 2.451h48a39.938 39.938 0 0 0 40-40v-59.8l-6.506 17.4a15.991 15.991 0 0 1 -15.014 10.4h-84.88a15.964 15.964 0 0 1 -14.987-10.328l-5.931-15.768q-.336-.342-.662-.694v2.81h-.02v55.98a39.931 39.931 0 0 0 26.236 37.514zm13.784-53.494h14.111a68.145 68.145 0 0 0 30.312-7.155l7.154 14.31a84.208 84.208 0 0 1 -37.466 8.845h-14.111z"/><path d="m312 128a15.99 15.99 0 0 0 -31.78-2.533 7.92 7.92 0 0 1 -.154 1.219c-.035.434-.066.87-.066 1.314a16 16 0 0 0 32 0z"/><path d="m378.96 160.48.241-.64q-1.581.157-3.2.16a32.042 32.042 0 0 1 -31.75-28.067 14.653 14.653 0 0 0 -16.5 0 32.042 32.042 0 0 1 -31.751 28.067c-.726 0-1.443-.033-2.157-.081l.2.545z"/><path d="m392 128c0-.243-.026-.479-.037-.72h-.043v-.08c0-.138.012-.275.018-.413a15.8 15.8 0 1 0 .062 1.213z"/><path d="m432.5 128.5a16.019 16.019 0 0 0 -16-16v32a16.019 16.019 0 0 0 16-16z"/><path d="m314.253 71.5a60.99 60.99 0 0 1 47.859-23h6.368v-5.982a20.815 20.815 0 0 0 -17.869-10.018h-38.111a40.045 40.045 0 0 0 -40 40v16h6.388a45.066 45.066 0 0 0 35.365-17z"/><path d="m326.747 81.5a61.209 61.209 0 0 1 -20.057 16.343 32.167 32.167 0 0 1 18.663 17.429 30.781 30.781 0 0 1 21.294 0 32.043 32.043 0 0 1 29.353-19.272c.526 0 1.049.015 1.569.04a59.845 59.845 0 0 1 -9.088-31.54h-6.369a45.066 45.066 0 0 0 -35.365 17z"/><path d="m100.486 190.946 2.827-2.827-16.971-16.972-2.827 2.829a12 12 0 0 0 16.971 16.97z"/><path d="m400.48 98.3v-25.82a24.041 24.041 0 0 0 -15.98-22.621v6.641c0 .13-.013.258-.02.387v7.593a44.133 44.133 0 0 0 16 33.82z"/><path d="m280 475.327 4.674 4.673h11.326v-11.326l-16-16z"/><path d="m87.08 210.008a27.826 27.826 0 0 1 -12.614-5.719l-32.589 83.792a23.86 23.86 0 0 1 12.889 5.02z"/><path d="m260.8 432h-60.8v48h60.8a3.2 3.2 0 0 0 3.2-3.2v-41.6a3.2 3.2 0 0 0 -3.2-3.2z"/><path d="m376 392h48v56h-48z"/><path d="m336 345.216 6.456-17.216h-12.912z"/><path d="m269.121 350.146a8 8 0 0 1 -13.121-6.146v-57.206l-28.854 4.778a45.948 45.948 0 0 0 -32.789 23.041l-15.826 31.587 17.817 10.281h.132a23.918 23.918 0 0 1 17.017 7.063l9.413 9.413 10.228-17.068a8 8 0 0 1 14.862 4.111v38.046l19 19a19.27 19.27 0 0 1 11.953 11.954l30.7 30.7a7.992 7.992 0 0 1 2.219 4.3h.128v16h16v-110.551l-19.534-52.091zm42.879 81.854h-16v-16h16zm0-48h-16v-16h16z"/><path d="m130.867 444.623a23.633 23.633 0 0 0 -1.451 3.377h22.584a8 8 0 0 1 8 8v24h24v-48h-32a24.075 24.075 0 0 0 -21.133 12.623z"/><path d="m32 464h112v16h-112z"/><path d="m243.325 416-24.171-24.172-11.326 11.325 12.847 12.847z"/><path d="m440 408.001h40v71.999h-40z"/><circle cx="40" cy="312" r="8"/><path d="m196.5 372.48a8.049 8.049 0 0 1 -1.579.232 7.371 7.371 0 0 0 -4.065 2.144 8.017 8.017 0 0 0 0 11.327l5.657 5.656 11.325-11.326-5.655-5.656a8.024 8.024 0 0 0 -5.683-2.377z"/><path d="m178.484 364.715-7.036-4.093-27.088 56.128c2.492-.486 53.686-.75 53.686-.75l-18.5-18.5a24.022 24.022 0 0 1 -1.062-32.785z"/></svg>